<svg width="100" height="100" viewBox="0 0 100 100" fill="none" xmlns="http://www.w3.org/2000/svg">
<path d="M10.3847 29.344C12.8167 29.344 14.0327 28.512 14.0327 26.848C14.0327 26.336 13.9207 25.904 13.6967 25.552C13.4887 25.184 13.2007 24.872 12.8327 24.616C12.4647 24.344 12.0407 24.112 11.5607 23.92C11.0967 23.728 10.6007 23.536 10.0727 23.344C9.46465 23.136 8.88865 22.904 8.34465 22.648C7.80065 22.376 7.32865 22.064 6.92865 21.712C6.52865 21.344 6.20865 20.912 5.96865 20.416C5.74465 19.92 5.63265 19.32 5.63265 18.616C5.63265 17.16 6.12865 16.024 7.12065 15.208C8.11265 14.392 9.48065 13.984 11.2247 13.984C12.2327 13.984 13.1447 14.096 13.9607 14.32C14.7927 14.528 15.4007 14.76 15.7847 15.016L15.0407 16.912C14.7047 16.704 14.2007 16.504 13.5287 16.312C12.8727 16.104 12.1047 16 11.2247 16C10.7767 16 10.3607 16.048 9.97665 16.144C9.59265 16.24 9.25665 16.384 8.96865 16.576C8.68065 16.768 8.44865 17.016 8.27265 17.32C8.11265 17.608 8.03265 17.952 8.03265 18.352C8.03265 18.8 8.12065 19.176 8.29665 19.48C8.47265 19.784 8.72065 20.056 9.04065 20.296C9.36065 20.52 9.72865 20.728 10.1447 20.92C10.5767 21.112 11.0487 21.304 11.5607 21.496C12.2807 21.784 12.9367 22.072 13.5287 22.36C14.1367 22.648 14.6567 22.992 15.0887 23.392C15.5367 23.792 15.8807 24.272 16.1207 24.832C16.3607 25.376 16.4807 26.04 16.4807 26.824C16.4807 28.28 15.9447 29.4 14.8727 30.184C13.8167 30.968 12.3207 31.36 10.3847 31.36C9.72865 31.36 9.12065 31.312 8.56065 31.216C8.01665 31.136 7.52865 31.04 7.09665 30.928C6.66465 30.8 6.28865 30.672 5.96865 30.544C5.66465 30.4 5.42465 30.28 5.24865 30.184L5.94465 28.264C6.31265 28.472 6.87265 28.704 7.62465 28.96C8.37665 29.216 9.29665 29.344 10.3847 29.344ZM6.0519 59V42.368H16.2039V44.36H8.3799V49.304H15.3399V51.248H8.3799V57.008H16.8039V59H6.0519ZM10.3847 85.344C12.8167 85.344 14.0327 84.512 14.0327 82.848C14.0327 82.336 13.9207 81.904 13.6967 81.552C13.4887 81.184 13.2007 80.872 12.8327 80.616C12.4647 80.344 12.0407 80.112 11.5607 79.92C11.0967 79.728 10.6007 79.536 10.0727 79.344C9.46465 79.136 8.88865 78.904 8.34465 78.648C7.80065 78.376 7.32865 78.064 6.92865 77.712C6.52865 77.344 6.20865 76.912 5.96865 76.416C5.74465 75.92 5.63265 75.32 5.63265 74.616C5.63265 73.16 6.12865 72.024 7.12065 71.208C8.11265 70.392 9.48065 69.984 11.2247 69.984C12.2327 69.984 13.1447 70.096 13.9607 70.32C14.7927 70.528 15.4007 70.76 15.7847 71.016L15.0407 72.912C14.7047 72.704 14.2007 72.504 13.5287 72.312C12.8727 72.104 12.1047 72 11.2247 72C10.7767 72 10.3607 72.048 9.97665 72.144C9.59265 72.24 9.25665 72.384 8.96865 72.576C8.68065 72.768 8.44865 73.016 8.27265 73.32C8.11265 73.608 8.03265 73.952 8.03265 74.352C8.03265 74.8 8.12065 75.176 8.29665 75.48C8.47265 75.784 8.72065 76.056 9.04065 76.296C9.36065 76.52 9.72865 76.728 10.1447 76.92C10.5767 77.112 11.0487 77.304 11.5607 77.496C12.2807 77.784 12.9367 78.072 13.5287 78.36C14.1367 78.648 14.6567 78.992 15.0887 79.392C15.5367 79.792 15.8807 80.272 16.1207 80.832C16.3607 81.376 16.4807 82.04 16.4807 82.824C16.4807 84.28 15.9447 85.4 14.8727 86.184C13.8167 86.968 12.3207 87.36 10.3847 87.36C9.72865 87.36 9.12065 87.312 8.56065 87.216C8.01665 87.136 7.52865 87.04 7.09665 86.928C6.66465 86.8 6.28865 86.672 5.96865 86.544C5.66465 86.4 5.42465 86.28 5.24865 86.184L5.94465 84.264C6.31265 84.472 6.87265 84.704 7.62465 84.96C8.37665 85.216 9.29665 85.344 10.3847 85.344Z" fill="black"/>
<path d="M42.5354 14.368V16.384H37.3034V31H34.9754V16.384H29.7434V14.368H42.5354ZM40.8781 59C40.5261 58.408 40.1181 57.744 39.6541 57.008C39.2061 56.272 38.7181 55.512 38.1901 54.728C37.6621 53.928 37.1101 53.12 36.5341 52.304C35.9741 51.488 35.4141 50.704 34.8541 49.952C34.2941 49.184 33.7501 48.464 33.2221 47.792C32.6941 47.12 32.2061 46.528 31.7581 46.016V59H29.4781V42.368H31.3261C32.0781 43.168 32.8781 44.104 33.7261 45.176C34.5901 46.232 35.4381 47.328 36.2701 48.464C37.1181 49.584 37.9101 50.688 38.6461 51.776C39.3981 52.864 40.0301 53.832 40.5421 54.68V42.368H42.8221V59H40.8781ZM36.16 75.72C35.488 77.864 34.808 79.848 34.12 81.672C33.432 83.496 32.744 85.272 32.056 87H29.728C28.88 84.552 28.128 81.968 27.472 79.248C26.832 76.528 26.232 73.568 25.672 70.368H28.12C28.344 71.616 28.576 72.864 28.816 74.112C29.056 75.36 29.304 76.576 29.56 77.76C29.816 78.928 30.072 80.048 30.328 81.12C30.584 82.192 30.848 83.184 31.12 84.096C31.76 82.416 32.44 80.576 33.16 78.576C33.88 76.56 34.552 74.48 35.176 72.336H37.192C37.816 74.48 38.496 76.56 39.232 78.576C39.968 80.576 40.656 82.416 41.296 84.096C41.552 83.2 41.808 82.216 42.064 81.144C42.32 80.072 42.568 78.952 42.808 77.784C43.064 76.6 43.312 75.384 43.552 74.136C43.792 72.872 44.024 71.616 44.248 70.368H46.624C46.048 73.568 45.432 76.528 44.776 79.248C44.136 81.968 43.4 84.552 42.568 87H40.24C39.536 85.272 38.848 83.496 38.176 81.672C37.504 79.848 36.832 77.864 36.16 75.72Z" fill="black"/>
<path d="M62.5902 31.336C61.4222 31.336 60.4142 31.176 59.5662 30.856C58.7182 30.52 58.0142 30.064 57.4542 29.488C56.9102 28.896 56.5022 28.2 56.2302 27.4C55.9742 26.584 55.8462 25.688 55.8462 24.712V14.368H59.5902V24.4C59.5902 25.072 59.6622 25.648 59.8062 26.128C59.9662 26.592 60.1742 26.976 60.4302 27.28C60.7022 27.568 61.0222 27.776 61.3902 27.904C61.7742 28.032 62.1902 28.096 62.6382 28.096C63.5502 28.096 64.2862 27.816 64.8462 27.256C65.4222 26.696 65.7102 25.744 65.7102 24.4V14.368H69.4542V24.712C69.4542 25.688 69.3182 26.584 69.0462 27.4C68.7742 28.216 68.3582 28.92 67.7982 29.512C67.2382 30.088 66.5262 30.536 65.6622 30.856C64.7982 31.176 63.7742 31.336 62.5902 31.336ZM70.5199 42.368V45.56H65.5039V59H61.7599V45.56H56.7439V42.368H70.5199ZM67.0582 87C66.8822 86.424 66.6822 85.832 66.4582 85.224C66.2502 84.616 66.0422 84.008 65.8342 83.4H59.3542C59.1462 84.008 58.9302 84.616 58.7062 85.224C58.4982 85.832 58.3062 86.424 58.1302 87H54.2422C54.8662 85.208 55.4582 83.552 56.0182 82.032C56.5782 80.512 57.1222 79.08 57.6502 77.736C58.1942 76.392 58.7222 75.12 59.2342 73.92C59.7622 72.704 60.3062 71.52 60.8662 70.368H64.4422C64.9862 71.52 65.5222 72.704 66.0502 73.92C66.5782 75.12 67.1062 76.392 67.6342 77.736C68.1782 79.08 68.7302 80.512 69.2902 82.032C69.8502 83.552 70.4422 85.208 71.0662 87H67.0582ZM62.5702 74.136C62.4902 74.376 62.3702 74.704 62.2102 75.12C62.0502 75.536 61.8662 76.016 61.6582 76.56C61.4502 77.104 61.2182 77.704 60.9622 78.36C60.7222 79.016 60.4742 79.704 60.2182 80.424H64.9462C64.6902 79.704 64.4422 79.016 64.2022 78.36C63.9622 77.704 63.7302 77.104 63.5062 76.56C63.2982 76.016 63.1142 75.536 62.9542 75.12C62.7942 74.704 62.6662 74.376 62.5702 74.136Z" fill="#0063B0"/>
<path d="M95.1171 22.672C95.1171 24.112 94.8931 25.368 94.4451 26.44C93.9971 27.496 93.3651 28.376 92.5491 29.08C91.7331 29.768 90.7571 30.288 89.6211 30.64C88.4851 30.976 87.2371 31.144 85.8771 31.144C85.2051 31.144 84.4611 31.112 83.6451 31.048C82.8451 31 82.1171 30.896 81.4611 30.736V14.608C82.1171 14.448 82.8451 14.344 83.6451 14.296C84.4611 14.232 85.2051 14.2 85.8771 14.2C87.2371 14.2 88.4851 14.376 89.6211 14.728C90.7571 15.064 91.7331 15.584 92.5491 16.288C93.3651 16.976 93.9971 17.856 94.4451 18.928C94.8931 19.984 95.1171 21.232 95.1171 22.672ZM86.0691 29.104C88.2771 29.104 89.9251 28.544 91.0131 27.424C92.1011 26.288 92.6451 24.704 92.6451 22.672C92.6451 20.64 92.1011 19.064 91.0131 17.944C89.9251 16.808 88.2771 16.24 86.0691 16.24C85.4131 16.24 84.9011 16.248 84.5331 16.264C84.1811 16.28 83.9331 16.296 83.7891 16.312V29.032C83.9331 29.048 84.1811 29.064 84.5331 29.08C84.9011 29.096 85.4131 29.104 86.0691 29.104ZM87.131 70.2C89.467 70.2 91.259 70.648 92.507 71.544C93.771 72.424 94.403 73.744 94.403 75.504C94.403 76.464 94.227 77.288 93.875 77.976C93.539 78.648 93.043 79.2 92.387 79.632C91.747 80.048 90.963 80.352 90.035 80.544C89.107 80.736 88.059 80.832 86.891 80.832H85.043V87H82.715V70.608C83.371 70.448 84.099 70.344 84.899 70.296C85.715 70.232 86.459 70.2 87.131 70.2ZM87.323 72.24C86.331 72.24 85.571 72.264 85.043 72.312V78.84H86.795C87.595 78.84 88.315 78.792 88.955 78.696C89.595 78.584 90.131 78.408 90.563 78.168C91.011 77.912 91.355 77.568 91.595 77.136C91.835 76.704 91.955 76.152 91.955 75.48C91.955 74.84 91.827 74.312 91.571 73.896C91.331 73.48 90.995 73.152 90.563 72.912C90.147 72.656 89.659 72.48 89.099 72.384C88.539 72.288 87.947 72.24 87.323 72.24Z" fill="black"/>
</svg>
